<svg width="40" height="51" viewBox="0 0 40 51" fill="none" xmlns="http://www.w3.org/2000/svg">
<mask id="mask0" mask-type="alpha" maskUnits="userSpaceOnUse" x="0" y="0" width="40" height="51">
<path d="M25.7858 12.6939V11.0716C25.7858 9.21269 24.3099 7.64674 22.4398 7.64674H20.9414V2.0138C20.9414 1.39417 20.4345 0.887207 19.8148 0.887207C19.1952 0.887207 18.6882 1.39417 18.6882 2.0138V7.64674H17.4152C15.5563 7.64674 14.0692 9.21269 14.0692 11.0716V12.6939C6.12679 15.2399 0.741699 22.6304 0.741699 30.9671C0.741699 41.557 9.34883 50.1642 19.9388 50.1642C30.5287 50.1642 39.1133 41.557 39.1133 30.9671C39.1246 22.6304 33.7282 15.2399 25.7858 12.6939ZM33.5817 20.9405H29.3683C28.974 19.8026 28.4896 18.6986 27.915 17.6396C27.4644 16.8059 26.9461 16.0173 26.3491 15.285C29.2331 16.4792 31.7341 18.4282 33.5817 20.9405ZM3.02867 32.2064H8.92073C8.99959 34.4821 9.31504 36.7578 9.87833 38.9659H4.98894C3.86235 36.8817 3.19766 34.5722 3.02867 32.2064ZM20.9414 20.9405V14.1359C22.789 14.564 24.5352 16.1525 25.9435 18.7324C26.3378 19.4421 26.6758 20.1857 26.9687 20.9405H20.9414ZM27.7122 23.1937C28.298 25.4018 28.636 27.6662 28.6924 29.9532H20.9414V23.1937H27.7122ZM18.6882 14.1922V20.9405H12.8863C13.1792 20.1857 13.5172 19.4421 13.9115 18.7324C15.2634 16.2651 16.9195 14.6992 18.6882 14.1922ZM18.6882 23.1937V29.9532H11.1626C11.219 27.6662 11.5569 25.4018 12.1428 23.1937H18.6882ZM8.90946 29.9532H3.00614C3.14133 27.5986 3.78349 25.2891 4.86501 23.1937H9.81073C9.26997 25.413 8.96579 27.6775 8.90946 29.9532ZM11.1739 32.2064H18.6882V38.9659H12.2104C11.5907 36.7578 11.2415 34.4933 11.1739 32.2064ZM18.6882 41.2191V47.742C16.9195 47.2351 15.2634 45.6691 13.9115 43.2131C13.5623 42.571 13.2468 41.9063 12.9764 41.2303H18.6882V41.2191ZM20.9414 47.7983V41.2191H26.8785C26.6082 41.895 26.2927 42.5597 25.9435 43.2019C24.5352 45.7817 22.789 47.3702 20.9414 47.7983ZM20.9414 38.9659V32.2064H28.6811C28.6022 34.4933 28.253 36.7578 27.6446 38.9659H20.9414ZM30.9343 32.2064H36.8263C36.6573 34.5722 35.9814 36.8817 34.8661 38.9659H29.9767C30.54 36.7578 30.8667 34.4821 30.9343 32.2064ZM30.9455 29.9532C30.8892 27.6775 30.585 25.413 30.033 23.1937H34.9787C36.0715 25.2891 36.7024 27.5986 36.8376 29.9532H30.9455ZM16.3224 11.0716C16.3224 10.4519 16.7956 9.89991 17.4152 9.89991H22.4511C23.0707 9.89991 23.5438 10.4519 23.5438 11.0716V12.108C21.1667 11.6461 18.7108 11.6461 16.3337 12.108V11.0716H16.3224ZM13.4947 15.285C12.9089 16.0286 12.3794 16.8172 11.9287 17.6396C11.3542 18.6986 10.8697 19.8026 10.4754 20.9405H6.26198C8.12085 18.4282 10.6219 16.4792 13.4947 15.285ZM6.44224 41.2191H10.5655C10.9373 42.2781 11.3992 43.3033 11.9287 44.2947C12.3794 45.1283 12.8976 45.9169 13.4947 46.6492C10.7007 45.5001 8.26731 43.6187 6.44224 41.2191ZM26.3603 46.6492C26.9461 45.9057 27.4756 45.1171 27.9263 44.2947C28.467 43.3033 28.9177 42.2781 29.2894 41.2191H33.4128C31.5877 43.6187 29.1543 45.5001 26.3603 46.6492Z" fill="white"/>
</mask>
<g mask="url(#mask0)">
<path d="M-9.71094 66.4883C29.8839 66.4883 61.9818 34.3512 61.9818 -5.29196L-9.71094 -5.29196L-9.71094 66.4883Z" fill="black"/>
</g>
</svg>
