<svg width="40" height="40" viewBox="0 0 40 40" fill="none" xmlns="http://www.w3.org/2000/svg">
<path d="M22.952 27.6128C21.3165 27.6128 19.6809 27.6128 18.0454 27.6128C17.8118 27.6128 17.5823 27.6128 17.3486 27.6128C16.4766 27.6128 15.638 28.3815 15.6797 29.2838C15.7214 30.1903 16.414 30.9548 17.3486 30.9548C18.9842 30.9548 20.6197 30.9548 22.2552 30.9548C22.4889 30.9548 22.7183 30.9548 22.952 30.9548C23.824 30.9548 24.6626 30.1861 24.6209 29.2838C24.5834 28.3773 23.8908 27.6128 22.952 27.6128Z" fill="black"/>
<path d="M16.5183 18.7736C17.5113 18.7736 18.521 18.7277 19.514 18.7778C19.368 18.7569 19.2178 18.736 19.0718 18.7193C19.1302 18.7277 19.1802 18.7402 19.2345 18.7569C19.101 18.7026 18.9675 18.6441 18.8339 18.5898C18.8882 18.6149 18.9299 18.6399 18.9758 18.6692C18.8632 18.5815 18.7505 18.4937 18.6378 18.406C18.6796 18.4436 18.7171 18.477 18.7547 18.523C18.6671 18.4102 18.5794 18.2974 18.4918 18.1846C18.5252 18.2305 18.5502 18.2765 18.5711 18.3266C18.5169 18.1929 18.4584 18.0593 18.4042 17.9256C18.4251 17.9799 18.4334 18.03 18.4418 18.0885C18.4209 17.9423 18.4 17.7919 18.3833 17.6457C18.4042 18.0467 18.3875 18.4478 18.3875 18.8488C18.3875 19.7679 18.3875 20.6869 18.3875 21.6018C18.3875 23.6822 18.3875 25.7668 18.3875 27.8472C18.3875 28.3234 18.3875 28.8039 18.3875 29.2801C18.3875 30.1532 19.1552 30.9929 20.0564 30.9511C20.9618 30.9093 21.7253 30.2159 21.7253 29.2801C21.7253 28.6493 21.7253 28.0227 21.7253 27.3919C21.7253 26.0216 21.7253 24.6514 21.7253 23.2812C21.7253 21.9485 21.7253 20.6159 21.7253 19.2791C21.7253 18.8655 21.7253 18.4561 21.7253 18.0426C21.7253 17.9465 21.7253 17.8462 21.7253 17.7501C21.7212 17.1402 21.5125 16.6055 21.112 16.1501C20.699 15.6781 20.0648 15.44 19.4514 15.4232C19.3346 15.4191 19.222 15.4232 19.1051 15.4232C18.9007 15.4232 18.7004 15.4232 18.496 15.4232C17.8952 15.4232 17.2944 15.4232 16.6936 15.4232C16.6352 15.4232 16.5726 15.4232 16.5142 15.4232C15.6422 15.4232 14.8035 16.1919 14.8452 17.0943C14.887 18.005 15.5796 18.7736 16.5183 18.7736Z" fill="black"/>
<path d="M18.3414 10.8569C18.3414 11.0825 18.3664 11.3206 18.3372 11.542C18.3581 11.3958 18.379 11.2454 18.3956 11.0992C18.3915 11.1117 18.3831 11.1243 18.379 11.141C18.4332 11.0073 18.4916 10.8736 18.5458 10.7399C18.5375 10.7525 18.5292 10.765 18.5208 10.7733C18.6084 10.6606 18.696 10.5478 18.7837 10.435C18.7711 10.4433 18.7586 10.4517 18.7503 10.46C18.8629 10.3723 18.9756 10.2846 19.0882 10.1968C19.0757 10.201 19.0632 10.2094 19.0465 10.2136C19.3261 10.1384 19.6098 10.0632 19.8893 9.98379C19.6598 10.013 19.3803 10.013 19.1508 9.98379C19.4304 10.059 19.7141 10.1342 19.9936 10.2136C19.9644 10.2052 19.9394 10.1927 19.9185 10.1718C20.0312 10.2595 20.1438 10.3472 20.2565 10.435C20.2481 10.4224 20.2398 10.4099 20.2314 10.4015C20.3191 10.5143 20.4067 10.6271 20.4943 10.7399C20.4901 10.7274 20.4818 10.7149 20.4776 10.6981C20.5318 10.8318 20.5903 10.9655 20.6445 11.0992C20.6445 11.0825 20.6403 11.0699 20.6403 11.0532C20.6612 11.1995 20.6821 11.3498 20.6987 11.4961C20.6987 11.283 20.6987 11.0699 20.6987 10.8569C20.6779 11.0031 20.657 11.1535 20.6403 11.2997C20.6403 11.2705 20.6487 11.2412 20.6654 11.212C20.5235 11.4585 20.3775 11.7049 20.2356 11.9514C20.2523 11.9263 20.2732 11.9055 20.2982 11.8887C20.052 12.0308 19.8059 12.177 19.5597 12.319C19.5847 12.3023 19.6139 12.294 19.6473 12.294C19.5013 12.3149 19.3511 12.3357 19.2051 12.3524C19.4304 12.3524 19.6724 12.3274 19.8977 12.3566C19.7516 12.3357 19.6014 12.3149 19.4554 12.2981C19.4679 12.3023 19.4804 12.3107 19.4971 12.3149C19.251 12.1728 19.0048 12.0266 18.7586 11.8846C18.7837 11.9013 18.8045 11.9222 18.8212 11.9472C18.6794 11.7008 18.5333 11.4543 18.3915 11.2078C18.4082 11.2329 18.4165 11.2621 18.4165 11.2955C18.4666 11.6632 18.8671 12.1269 19.1842 12.294C19.5222 12.4736 19.8685 12.5446 20.2481 12.4903C20.5986 12.4444 20.9616 12.2981 21.2078 12.0308C21.4831 11.73 21.7543 11.2746 21.6959 10.8485C21.6542 10.531 21.6417 10.3848 21.529 10.1175C21.4289 9.87935 21.3288 9.7039 21.1243 9.52009C20.753 9.19006 20.3316 9.02296 19.8393 9.00625C19.6807 9.00207 19.5263 9.00625 19.3678 9.00625C18.8296 9.00625 18.3039 9.16082 17.9117 9.54515C17.5111 9.93784 17.3734 10.4767 17.3734 11.0198C17.3734 11.1702 17.3693 11.3248 17.3734 11.4752C17.4068 12.507 18.187 13.2882 19.2134 13.33C19.7475 13.3509 20.3065 13.3425 20.7864 13.0793C21.3538 12.7702 21.6834 12.1185 21.6959 11.4877C21.6959 11.4292 21.6959 11.3749 21.6959 11.3164C21.6959 11.1619 21.6959 11.0031 21.6959 10.8485C21.6959 10.4183 21.5082 9.97126 21.2078 9.6663C20.9199 9.37805 20.4442 9.15664 20.027 9.17753C19.1049 9.22766 18.3414 9.92113 18.3414 10.8569Z" fill="black"/>
<path d="M35.7781 19.9853C35.7781 20.7791 35.7238 21.5728 35.6195 22.3623C35.6404 22.2161 35.6612 22.0657 35.6779 21.9195C35.4693 23.4652 35.0563 24.9775 34.4555 26.4187C34.5097 26.285 34.5681 26.1514 34.6224 26.0177C34.0299 27.4213 33.258 28.7456 32.3276 29.9571C32.4152 29.8443 32.5028 29.7315 32.5905 29.6187C31.6517 30.8302 30.5669 31.9205 29.3528 32.8605C29.4654 32.7727 29.5781 32.685 29.6907 32.5973C28.4808 33.5247 27.1623 34.2975 25.7563 34.8949C25.8898 34.8406 26.0233 34.7821 26.1568 34.7278C24.7174 35.3294 23.207 35.743 21.6633 35.9518C21.8093 35.931 21.9595 35.9101 22.1055 35.8934C20.5284 36.1022 18.9304 36.1022 17.3533 35.8934C17.4993 35.9142 17.6495 35.9351 17.7955 35.9518C16.2518 35.743 14.7414 35.3294 13.302 34.7278C13.4355 34.7821 13.569 34.8406 13.7025 34.8949C12.3007 34.3017 10.978 33.5289 9.76808 32.5973C9.88074 32.685 9.99339 32.7727 10.106 32.8605C8.89608 31.9205 7.80711 30.8344 6.86835 29.6187C6.95597 29.7315 7.04359 29.8443 7.1312 29.9571C6.20496 28.7456 5.43309 27.4255 4.83645 26.0177C4.89069 26.1514 4.9491 26.285 5.00334 26.4187C4.40253 24.9775 3.98948 23.4652 3.78086 21.9195C3.80172 22.0657 3.82259 22.2161 3.83928 22.3623C3.63066 20.7832 3.63066 19.1832 3.83928 17.6041C3.81841 17.7503 3.79755 17.9007 3.78086 18.047C3.98948 16.5013 4.40253 14.989 5.00334 13.5478C4.9491 13.6814 4.89069 13.8151 4.83645 13.9488C5.42891 12.5451 6.20079 11.2209 7.1312 10.0094C7.04359 10.1222 6.95597 10.235 6.86835 10.3478C7.80711 9.13629 8.89191 8.04595 10.106 7.10601C9.99339 7.19374 9.88074 7.28147 9.76808 7.36919C10.978 6.44178 12.2965 5.66894 13.7025 5.07155C13.569 5.12586 13.4355 5.18435 13.302 5.23865C14.7414 4.63709 16.2518 4.22352 17.7955 4.01464C17.6495 4.03553 17.4993 4.05641 17.3533 4.07312C18.9304 3.86425 20.5284 3.86425 22.1055 4.07312C21.9595 4.05224 21.8093 4.03135 21.6633 4.01464C23.207 4.22352 24.7174 4.63709 26.1568 5.23865C26.0233 5.18435 25.8898 5.12586 25.7563 5.07155C27.1581 5.66476 28.4808 6.4376 29.6907 7.36919C29.5781 7.28147 29.4654 7.19374 29.3528 7.10601C30.5627 8.04595 31.6517 9.13211 32.5905 10.3478C32.5028 10.235 32.4152 10.1222 32.3276 10.0094C33.2538 11.2209 34.0257 12.541 34.6224 13.9488C34.5681 13.8151 34.5097 13.6814 34.4555 13.5478C35.0563 14.989 35.4693 16.5013 35.6779 18.047C35.6571 17.9007 35.6362 17.7503 35.6195 17.6041C35.728 18.3979 35.7781 19.1916 35.7781 19.9853C35.7781 20.8584 36.5458 21.6981 37.447 21.6563C38.3482 21.6146 39.1159 20.9211 39.1159 19.9853C39.1076 16.0376 37.8976 12.0731 35.607 8.85222C35.0187 8.02506 34.3762 7.22716 33.6711 6.49609C32.9493 5.74831 32.1607 5.07991 31.3388 4.45328C29.8034 3.27939 28.0886 2.38123 26.2736 1.717C22.5144 0.338414 18.267 0.221444 14.4202 1.32013C10.7152 2.37705 7.30227 4.57861 4.85731 7.56136C4.21061 8.35091 3.60563 9.17389 3.08409 10.0512C2.55421 10.9368 2.1203 11.8642 1.73227 12.8209C0.981264 14.659 0.564036 16.6099 0.409662 18.5859C0.100913 22.5503 1.08557 26.6234 3.1425 30.0197C5.13268 33.2991 8.12003 36.027 11.6206 37.6061C12.5635 38.0322 13.5315 38.4082 14.5328 38.6881C15.555 38.9722 16.5981 39.1518 17.6495 39.273C19.6772 39.5111 21.7425 39.3858 23.741 38.9764C27.5211 38.2035 31.0717 36.2067 33.7337 33.4161C36.4081 30.613 38.2689 26.9869 38.8572 23.1519C39.0199 22.1033 39.1201 21.0506 39.1242 19.9895C39.1242 19.1164 38.3565 18.2767 37.4553 18.3185C36.5416 18.3561 35.7822 19.0496 35.7781 19.9853Z" fill="black"/>
</svg>
